<svg
  version="1.0"
  xmlns="http://www.w3.org/2000/svg"
  width="550"
  height="310"
  viewBox="0 0 690.000000 375.000000"
  preserveAspectRatio="xMidYMid meet"
>
  <g
    transform="translate(0.000000,375.000000) scale(0.100000,-0.100000)"
    fill="white"
    stroke="none"
  >
    <path
      d="M3518 3139 c-172 -19 -305 -85 -433 -214 -151 -150 -215 -305 -215
-514 0 -133 18 -210 77 -331 39 -80 59 -108 137 -185 151 -150 308 -216 516
-216 261 0 488 125 624 345 228 366 91 847 -296 1041 -127 63 -274 90 -410 74z
m128 -371 c16 -12 46 -37 67 -57 35 -33 37 -38 37 -98 0 -35 -4 -63 -10 -63
-5 0 -10 20 -10 45 l0 45 -48 0 c-68 0 -92 20 -92 76 l0 44 -135 0 -135 0 0
-350 0 -350 198 2 197 3 5 55 c4 40 9 55 20 55 23 0 20 -98 -4 -124 -18 -20
-30 -21 -244 -21 -218 0 -227 1 -249 22 l-23 21 0 338 0 338 26 20 c25 19 40
21 199 21 161 0 174 -1 201 -22z m90 -238 c18 0 36 5 40 11 4 8 9 8 17 0 14
-14 74 -14 82 -1 5 7 11 8 18 1 7 -5 28 -11 47 -13 l35 -3 3 -148 c1 -90 -2
-155 -8 -167 -10 -19 -21 -20 -184 -20 -136 0 -176 3 -185 14 -8 9 -11 63 -9
167 l3 154 35 3 c19 2 39 8 45 13 5 5 13 5 19 -1 6 -5 25 -10 42 -10z"
    ></path>
    <path d="M3622 2714 l3 -39 49 -3 48 -3 -33 28 c-73 62 -71 61 -67 17z"
    ></path>
    <path d="M3682 2500 c0 -19 2 -27 5 -17 2 9 2 25 0 35 -3 9 -5 1 -5 -18z"
    ></path>
    <path d="M3782 2500 c0 -19 2 -27 5 -17 2 9 2 25 0 35 -3 9 -5 1 -5 -18z"
    ></path>
    <path d="M3882 2500 c0 -19 2 -27 5 -17 2 9 2 25 0 35 -3 9 -5 1 -5 -18z"
    ></path>
    <path
      d="M3620 2405 c0 -18 5 -25 20 -25 15 0 20 7 20 25 0 18 -5 25 -20 25
-15 0 -20 -7 -20 -25z"
    ></path>
    <path
      d="M3690 2405 c0 -18 5 -25 20 -25 15 0 20 7 20 25 0 18 -5 25 -20 25
-15 0 -20 -7 -20 -25z"
    ></path>
    <path
      d="M3760 2405 c0 -20 5 -25 25 -25 20 0 25 5 25 25 0 20 -5 25 -25 25
-20 0 -25 -5 -25 -25z"
    ></path>
    <path
      d="M3840 2405 c0 -18 5 -25 20 -25 15 0 20 7 20 25 0 18 -5 25 -20 25
-15 0 -20 -7 -20 -25z"
    ></path>
    <path
      d="M3910 2405 c0 -18 5 -25 20 -25 15 0 20 7 20 25 0 18 -5 25 -20 25
-15 0 -20 -7 -20 -25z"
    ></path>
    <path
      d="M3620 2330 c0 -13 7 -20 20 -20 13 0 20 7 20 20 0 13 -7 20 -20 20
-13 0 -20 -7 -20 -20z"
    ></path>
    <path
      d="M3690 2330 c0 -13 7 -20 20 -20 13 0 20 7 20 20 0 13 -7 20 -20 20
-13 0 -20 -7 -20 -20z"
    ></path>
    <path
      d="M3760 2324 c0 -21 4 -25 23 -22 14 2 23 11 25 26 3 18 -1 22 -22 22
-21 0 -26 -5 -26 -26z"
    ></path>
    <path
      d="M3840 2325 c0 -18 5 -25 20 -25 15 0 20 7 20 25 0 18 -5 25 -20 25
-15 0 -20 -7 -20 -25z"
    ></path>
    <path
      d="M3910 2325 c0 -18 5 -25 20 -25 15 0 20 7 20 25 0 18 -5 25 -20 25
-15 0 -20 -7 -20 -25z"
    ></path>
    <path
      d="M3620 2250 c0 -23 4 -30 20 -30 16 0 20 7 20 30 0 23 -4 30 -20 30
-16 0 -20 -7 -20 -30z"
    ></path>
    <path
      d="M3690 2250 c0 -23 4 -30 20 -30 16 0 20 7 20 30 0 23 -4 30 -20 30
-16 0 -20 -7 -20 -30z"
    ></path>
    <path
      d="M3760 2250 c0 -25 4 -30 25 -30 21 0 25 5 25 30 0 25 -4 30 -25 30
-21 0 -25 -5 -25 -30z"
    ></path>
    <path
      d="M3840 2250 c0 -23 4 -30 20 -30 16 0 20 7 20 30 0 23 -4 30 -20 30
-16 0 -20 -7 -20 -30z"
    ></path>
    <path
      d="M3910 2250 c0 -23 4 -30 20 -30 16 0 20 7 20 30 0 23 -4 30 -20 30
-16 0 -20 -7 -20 -30z"
    ></path>
    <path
      d="M2565 1383 c-4 -10 -49 -141 -101 -290 l-93 -273 38 0 38 0 30 83 29
82 116 3 115 3 30 -83 c29 -83 29 -83 67 -86 29 -3 37 0 34 10 -3 7 -49 138
-103 291 l-99 277 -47 0 c-35 0 -49 -4 -54 -17z m145 -325 c0 -4 -40 -8 -90
-8 -49 0 -90 1 -90 3 0 5 67 200 80 232 11 29 13 27 56 -95 24 -68 44 -128 44
-132z"
    ></path>
    <path
      d="M2950 1111 l0 -291 40 0 40 0 0 119 0 119 88 4 c135 6 191 49 200
150 6 72 -15 119 -68 155 -40 26 -51 28 -171 31 l-129 4 0 -291z m261 190 c40
-41 41 -98 1 -142 -26 -29 -34 -32 -105 -37 l-77 -5 0 107 0 106 76 0 c70 0
78 -2 105 -29z"
    ></path>
    <path
      d="M3890 1365 c0 -33 2 -35 35 -35 33 0 35 2 35 35 0 33 -2 35 -35 35
-33 0 -35 -2 -35 -35z"
    ></path>
    <path
      d="M4636 1344 c-3 -9 -6 -36 -6 -60 l0 -44 -46 0 c-44 0 -45 -1 -42 -27
3 -24 8 -28 40 -31 l37 -3 3 -151 3 -150 35 -30 c32 -27 40 -29 97 -26 34 2
64 6 67 8 2 3 2 16 -1 30 -4 23 -8 25 -52 22 -70 -5 -75 5 -79 165 l-4 133 66
0 66 0 0 30 0 30 -65 0 -65 0 0 60 c0 57 -1 60 -24 60 -13 0 -27 -7 -30 -16z"
    ></path>
    <path
      d="M3515 1236 c-187 -52 -179 -374 10 -414 64 -13 137 0 180 32 108 83
93 310 -24 370 -42 22 -111 27 -166 12z m139 -74 c63 -57 61 -209 -4 -267 -16
-15 -36 -20 -71 -19 -84 1 -125 62 -117 175 5 64 27 104 69 127 30 16 96 7
123 -16z"
    ></path>
    <path
      d="M4267 1236 c-26 -7 -58 -23 -71 -35 l-23 -22 -6 31 c-6 25 -11 30
-37 30 l-30 0 0 -210 0 -210 40 0 40 0 0 153 c0 148 1 154 23 175 30 28 80 43
118 35 53 -10 59 -31 59 -205 l0 -158 41 0 41 0 -3 168 c-3 140 -7 172 -22
195 -37 57 -93 74 -170 53z"
    ></path>
    <path d="M3890 1030 l0 -210 35 0 35 0 0 210 0 210 -35 0 -35 0 0 -210z"
    ></path>
  </g>
</svg>
